<?xml version="1.0" standalone="no"?>
<!DOCTYPE svg PUBLIC "-//W3C//DTD SVG 20010904//EN"
 "http://www.w3.org/TR/2001/REC-SVG-20010904/DTD/svg10.dtd">
<svg version="1.0" xmlns="http://www.w3.org/2000/svg"
 width="512.000000pt" height="512.000000pt" viewBox="0 0 512.000000 512.000000"
 preserveAspectRatio="xMidYMid meet">
<metadata>
Created by potrace 1.14, written by Peter Selinger 2001-2017
</metadata>
<g transform="translate(0.000000,512.000000) scale(0.100000,-0.100000)"
fill="#000000" stroke="none">
<path d="M149 5017 c-18 -12 -44 -38 -56 -56 l-23 -34 0 -1563 0 -1564 2500 0
2500 0 0 1555 c0 1719 5 1597 -66 1651 l-37 29 -2392 2 -2392 3 -34 -23z
m2495 -616 l31 -31 3 -1071 c3 -1192 7 -1120 -65 -1154 -48 -23 -99 -14 -138
25 l-30 30 -3 1073 c-2 852 0 1077 10 1097 39 75 133 90 192 31z m-1207 -313
c14 -13 34 -43 45 -68 26 -59 38 -88 87 -193 23 -49 41 -90 41 -93 0 -2 16
-38 35 -80 19 -41 35 -77 35 -80 0 -2 16 -39 36 -81 20 -43 51 -112 69 -153
40 -93 69 -159 102 -229 14 -30 40 -89 58 -130 32 -75 41 -95 107 -241 82
-179 85 -214 21 -270 -32 -29 -41 -32 -81 -27 -58 6 -91 40 -132 137 -18 41
-42 95 -53 120 -11 25 -37 83 -58 130 l-38 85 -351 0 -351 0 -90 -205 c-108
-243 -133 -276 -206 -267 -33 3 -54 13 -77 36 -60 60 -61 56 238 726 148 330
277 620 288 645 103 232 106 238 158 262 27 13 91 0 117 -24z m2374 22 c221
-41 389 -248 389 -479 0 -56 -32 -176 -59 -223 l-20 -33 63 -33 c82 -43 168
-132 207 -215 37 -80 40 -93 44 -192 4 -87 -10 -157 -47 -233 -29 -61 -149
-181 -210 -210 -102 -49 -123 -51 -590 -49 l-438 2 -32 33 -33 32 0 768 c0
750 0 768 20 793 11 15 29 31 40 36 27 14 596 16 666 3z"/>
<path d="M1344 3673 c-4 -10 -13 -34 -22 -53 -8 -19 -57 -129 -108 -245 l-94
-210 120 -3 c66 -1 174 -1 239 0 l119 3 -28 67 c-16 37 -42 96 -58 130 -16 35
-55 123 -87 196 -32 72 -62 132 -67 132 -5 0 -11 -8 -14 -17z"/>
<path d="M3320 3640 l0 -240 216 0 c245 0 289 8 348 67 53 53 71 97 71 178 0
59 -5 77 -27 112 -73 112 -107 123 -390 123 l-218 0 0 -240z"/>
<path d="M3320 2920 l0 -241 353 3 c387 3 388 3 455 69 47 46 66 95 67 169 0
75 -19 121 -70 171 -67 66 -82 68 -462 68 l-343 1 0 -240z"/>
<path d="M70 1406 c0 -294 3 -318 53 -364 13 -12 39 -27 58 -32 52 -15 4736
-13 4780 1 19 7 45 21 58 33 48 42 51 66 51 361 l0 275 -2500 0 -2500 0 0
-274z m2737 21 c30 -28 37 -41 39 -79 3 -58 -26 -104 -76 -119 -21 -6 -108 -9
-222 -7 l-188 3 -30 30 c-39 39 -48 90 -25 138 28 60 54 67 273 67 l192 0 37
-33z"/>
<path d="M2079 868 c0 -21 -10 -98 -23 -190 l-13 -88 26 6 c14 3 37 10 51 14
172 60 460 83 655 54 90 -14 249 -51 299 -70 18 -7 18 -3 12 62 -6 65 -12 108
-21 164 -2 14 -4 33 -4 43 -1 16 -31 17 -491 17 -385 0 -490 -3 -491 -12z"/>
<path d="M2438 555 c-2 -2 -28 -6 -58 -10 -30 -3 -63 -8 -72 -11 -9 -3 -25 -7
-35 -9 -253 -52 -715 -261 -751 -341 -23 -50 -8 -100 38 -127 26 -16 112 -17
1009 -17 738 0 987 3 1006 12 47 21 68 88 42 135 -31 56 -318 205 -532 277
-85 29 -221 65 -270 73 -16 2 -41 7 -55 10 -27 6 -317 13 -322 8z"/>
</g>
</svg>
